<svg id="ac8a7f00-669d-4306-9a97-0f823ad98d8d" data-name="a0aa166f-5d0b-41ea-9c20-236557ee9d22" xmlns="http://www.w3.org/2000/svg" width="910.38" height="917.34" viewBox="0 0 910.38 917.34"><path d="M455.78,0C705.91.25,910.1,205.26,910.38,456.46c.29,251.84-206.17,461.05-454.8,460.88C203.76,917.16-.71,709.53,0,454.74.71,203.3,204.72-.24,455.78,0ZM443.1,815.66c5.46-8.37,6.94-9.81,7.47-11.55,24.65-82,49.88-163.75,73.43-246,7.58-26.48,21.36-45,44-60.81,73.91-51.64,105.67-123.81,94.82-214.23-12-100-93.1-180.45-192.63-192.07C367.52,79,269.35,141.37,235,240.41c-33.69,97.06,2.49,208,89.94,259.35,35.73,21,52.95,47.12,61.41,86.66C402.37,661.41,422.91,735.41,443.1,815.66Z" transform="translate(0 0)" fill="#fff"/><path d="M379.41,401.43c-1.24,17.91-13.33,29.2-34.53,29.92-20,.67-37.52-17.19-35.45-36.86,2.16-20.51,13.51-33.89,35.08-34.64C364.25,359.16,379.78,376.44,379.41,401.43Z" transform="translate(0 0)" fill="#fff"/><path d="M546.21,431.58c-17.7-1.77-30-13.18-31.77-34.35-1.65-19.9,15.59-38.37,35.09-37.12,20.52,1.32,33.67,12.73,35.22,34.27C586.19,414.29,569.27,431.47,546.21,431.58Z" transform="translate(0 0)" fill="#fff"/></svg>